<svg id="b625f1e5-8169-47f0-a629-6174850bf053" data-name="Layer 1" xmlns="http://www.w3.org/2000/svg" xmlns:xlink="http://www.w3.org/1999/xlink" width="865.76" height="682.89" viewBox="0 0 865.76 682.89"><defs><clipPath id="bba1797d-02d6-49ba-8647-7b2a2f5c5d3f"><path id="bc4b0d75-d667-46b5-822e-071868d19f46" data-name="SVGID" d="M-239.61,601.51c-45.46,6.93-88.53,11.33-126.68,14.09-91.65,6.63-155,3.83-155,3.83-94.07,0-157.84-9-199.58-21.43-53.86-16.08-75.27-35-75.27-35-76.57-64-70-186.28-70-186.28,7.19-149,141.27-212.81,141.27-212.81s259.19-193.67,528.75-56.92c0,0,152.35,65.95,156.62,232C-39.51,338.93-32,569.86-239.61,601.51Z" fill="none"/></clipPath></defs><path d="M669.85,561.68a5.52,5.52,0,0,1-.52,4.17l-13.79,24.81c-7.31,11.07-13.89,6.92-13.89,6.92,5.33-5.79,9.68-21,11-25.92a9.34,9.34,0,0,0,.18-4c-2.52-13.69-25.06-62.89-25.06-62.89l32.64,7.57C659.25,522.41,667.5,553.22,669.85,561.68Z" fill="#f7a48b"/><path d="M675.25,584.19c-1.93,3.36,1.58,16.16,1.58,16.16l-3.6,1-3.9-14.19c-2.9-4.9-8.07,11.14-8.07,11.14-5.76,14.9-24.93,12.91-24.93,12.91-8.35-5,5.32-13.61,5.32-13.61s6.58,4.15,13.89-6.92l13.79-24.81a5.52,5.52,0,0,0,.52-4.17C681.61,570.66,675.25,584.19,675.25,584.19Z" fill="#0071f2"/><path d="M675.25,584.19c-1.93,3.36,1.58,16.16,1.58,16.16l-3.6,1-3.9-14.19c-2.9-4.9-8.07,11.14-8.07,11.14-5.76,14.9-24.93,12.91-24.93,12.91-8.35-5,5.32-13.61,5.32-13.61s6.58,4.15,13.89-6.92l13.79-24.81a5.52,5.52,0,0,0,.52-4.17C681.61,570.66,675.25,584.19,675.25,584.19Z" opacity="0.2"/><polygon points="762.02 502.98 786.41 616.17 793 616.17 777.51 500.18 762.02 502.98" fill="#bcbec0"/><polygon points="729.3 500.18 748.1 616.17 752.65 616.17 740.98 500.18 729.3 500.18" fill="#bcbec0"/><polygon points="685.08 502.45 663.43 616.17 657.2 616.17 670.04 500.18 685.08 502.45" fill="#bcbec0"/><path d="M661.92,500.81,672,505.75l107-.88a6.88,6.88,0,0,0,6.78-7.5l-1.84-20L729.3,453.92l-67.38,16.49-4.72,23.35Z" fill="#d1d3d4"/><polygon points="676.97 481.63 671.97 505.75 661.92 500.81 657.2 493.76 661.92 470.41 664.33 477.39 676.97 481.63" opacity="0.3"/><path d="M729.3,453.92,756,339.54a19.45,19.45,0,0,1,19.72-15l20.18.81A18.8,18.8,0,0,1,813.47,348L789.05,462s-3.08,16.33-8.37,18.74Z" fill="#d1d3d4"/><path d="M664.33,477.39,677,481.63H753.8s8.73,19.08,15.18,23.17h9.9a6.87,6.87,0,0,0,6.84-7.49l-1.83-19.92s9.42-67.33-7.11-108.66a54.36,54.36,0,0,0-6.15-11.12l-14.21-20.1L729.3,453.92l-67.38,16.49Z" opacity="0.2"/><path d="M729.3,474.4H672.12S659.93,469.87,662,495l-.52,33.71-57.57-31.12s10.12-57,23.6-64.55l12.41-2.52h0l51.52-10.46,64.06,20.45S763.91,472.19,729.3,474.4Z" fill="#2f2e41"/><path d="M729.3,474.4H672.12S659.93,469.87,662,495l-.52,33.71s-27.48-59.9-5.18-64.58l33.53-8.81s-34.37-19.52-49.89-24.8l51.52-10.46,64.06,20.45S763.91,472.19,729.3,474.4Z" opacity="0.2"/><path d="M759.34,436.92a2.3,2.3,0,0,1-1.75,3.33c-11.23,1.53-47.22,5.82-61.07.28a10.48,10.48,0,0,1-4.34-2.87,3.44,3.44,0,0,1-.71-2.19V404.9l-9.74-17.1s-6.06-7.41,2.37-25.11l8.79-18.18,3.35-26.66L711.82,323l24.48,21.1,3.89,23.4S750.38,419.31,759.34,436.92Z" fill="#0071f2"/><path d="M696.52,440.53a10.46,10.46,0,0,1-4.35-2.88,3.49,3.49,0,0,1-.7-2.18V420.08l32.33-60.77,4.49-.53S738.12,407.53,696.52,440.53Z" opacity="0.2"/><path d="M425.86,574.68l-4.29,13.71h19.95s2.58-8.22,3.55-11.36Z" fill="#f9b499"/><path d="M398.24,603.15c-3.38.26-8.67,1.26-9,5.07a2.6,2.6,0,0,0,1.76,2.69c2.89,1,9.38,2.6,15.12-.17a14.77,14.77,0,0,1,6.51-1.55l13.23.15a11.47,11.47,0,0,1,1.94.17c3.66.62,17.63,2.17,14.56-11.13l-.81-10H421.57s-5.09-.59-9.4,4.9L403.33,601A8.65,8.65,0,0,1,398.24,603.15Z" fill="#0071f2"/><polygon points="370.76 539.28 379.58 526.59 392.97 542.29 383.88 552.83 370.76 539.28" fill="#f9b499"/><path d="M339.8,526.59s-2.37,1.94,1.29,8.6l23.44,26.67s9.68,11.61,15.7,2.58L385.6,555s2.37-1.51-2.15-5.59l-10.32-9.68s-1.94-2.37-8.6-3.23c0,0-13.12-3.22-15.27-7.74C349.26,528.74,343.88,522.93,339.8,526.59Z" fill="#0071f2"/><polygon points="536.66 489.6 536.66 613.56 532.96 613.56 523.06 489.6 536.66 489.6" fill="#a7a9ac"/><polygon points="471.11 489.6 471.11 613.56 475.74 613.56 481.75 489.6 471.11 489.6" fill="#bcbec0"/><polygon points="516.27 489.6 516.27 613.56 519.96 613.56 529.86 489.6 516.27 489.6" fill="#bcbec0"/><polygon points="580.63 489.6 580.63 613.56 576.94 613.56 567.04 489.6 580.63 489.6" fill="#bcbec0"/><path d="M382.08,533.58l11.84,9.47a6.32,6.32,0,0,0,9.44-1.8l35.54-62.33L505,430.28V417.11l-55.81,2s-22.71-2.84-30.82,21.09l-39.21,80.27A10.73,10.73,0,0,0,382.08,533.58Z" fill="#2f2e41"/><path d="M418.6,514.51s-7.38-51.35,39.89-88.31l12.62-7.86L505,417.11v13.17L438.9,478.92Z" opacity="0.2"/><ellipse cx="532.63" cy="285.78" rx="24" ry="15.73" transform="translate(140.25 745.57) rotate(-77.74)" fill="#f9b499"/><rect x="532.63" y="314.18" width="18.78" height="12.06" fill="#f9b499"/><rect x="154.97" y="104.56" width="241.58" height="153.29" fill="#d1d3d4"/><rect x="161.08" y="108.97" width="229.38" height="141.43" fill="#e6e7e8"/><path d="M199.19,261.14l18.92,6.47,7.26-30,1-49.33-32.19-7.1-7.28,13.31s-2.91,34-2.82,34.91S199.19,261.14,199.19,261.14Z" fill="#e6e7e8"/><path d="M219.79,275.28l-18.08,45L155.84,450.06l-.29.69-32.17,76.19s-12.53-1.14-17.66-8.54c0,0,20.14-79.45,28.49-108.57.2-.66.38-1.31.55-1.92l7.49-94,40.52-53.54Z" fill="#2f2e41"/><path d="M219.79,275.28l-18.08,45L155.84,450.06l-.29.69c-6.77-8.84-15.82-28.31-21.34-40.92.2-.66.38-1.31.55-1.92l7.49-94,40.52-53.54Z" opacity="0.2"/><path d="M314.34,261.82s-57.06,8.83-65.87-4.29c0,0-6.67-6.91-7.15-15,0,0-2.42,6.52-4.88,11.82A88.46,88.46,0,0,0,228.92,281c-1.17,9.62-1.8,21.34-.21,31.93a5.21,5.21,0,0,1-3.24,5.67c-4.45,1.71-12.57,3.67-23.76,1.71l4.45-33.89s5.46-14.58,9.5-29.43a124.5,124.5,0,0,0,4.13-20.44s2.05-23.11,1.89-30.88l-1.89-22.35s26.06,5,35.84,31.76l8.6,23.15s35.31-.24,43.42-2.64c0,0,1.28,12.51,3.65,20.35C312.17,258.8,313.18,261.05,314.34,261.82Z" fill="#0071f2"/><path d="M314.34,261.82s-57.06,8.83-65.87-4.29c0,0-6.67-6.91-7.15-15,0,0-2.42,6.52-4.88,11.82A88.46,88.46,0,0,0,228.92,281c-1.17,9.62-1.8,21.34-.21,31.93a5.21,5.21,0,0,1-3.24,5.67c-4.45,1.71-12.57,3.67-23.76,1.71l4.45-33.89s5.46-14.58,9.5-29.43c0,0,23.75,13.92,25.42-37.86,0,0,0,40.36,48.58,38.08l21.64-1.27C312.17,258.8,313.18,261.05,314.34,261.82Z" opacity="0.2"/><rect x="145.02" y="104.56" width="9.95" height="153.29" fill="#bcbec0"/><rect x="195.35" y="135.47" width="80.21" height="6.79" fill="#fff"/><rect x="195.35" y="152.52" width="80.21" height="6.79" fill="#fff"/><rect x="195.35" y="185.82" width="80.21" height="6.79" fill="#fff"/><path d="M249.68,259.17h62.87a3.89,3.89,0,0,1,3.89,3.89v42.67a0,0,0,0,1,0,0H245.79a0,0,0,0,1,0,0V263.06A3.89,3.89,0,0,1,249.68,259.17Z" fill="#2f2e41"/><path d="M249.68,259.17h62.87a3.89,3.89,0,0,1,3.89,3.89v42.67a0,0,0,0,1,0,0H245.79a0,0,0,0,1,0,0V263.06A3.89,3.89,0,0,1,249.68,259.17Z" opacity="0.2"/><ellipse cx="219.79" cy="144.45" rx="20.7" ry="27.72" fill="#f9b499"/><path d="M194.22,184.87s7.95,10.06,14.51,12.71a4.48,4.48,0,0,0,3.86-.29c3.45-2,9.84-7.48,1.19-18.89l2.23-6.7s-9.22-1.14-14.62-14.55a33.52,33.52,0,0,1,.11,12A34,34,0,0,1,194.22,184.87Z" fill="#f9b499"/><path d="M216,171.7l-1.37,4.13s-9-1.05-13.25-18.68C201.39,157.15,206.41,169.38,216,171.7Z" fill="#f7a48b"/><path d="M193.51,185.24s2.15,18.43,4.26,22l12.83-6.82,14.46,6.82s3.27-20.48-11.28-28.84c0,0,10.71,12.34-1.19,18.89,0,0-2.52.91-3.86.29,0,0-5.93-2.17-14.51-12.71Z" fill="#0071f2"/><path d="M193.51,185.24s2.15,18.43,4.26,22l12.83-6.82,14.46,6.82s3.27-20.48-11.28-28.84c0,0,10.71,12.34-1.19,18.89,0,0-2.52.91-3.86.29,0,0-5.93-2.17-14.51-12.71Z" fill="#fff" opacity="0.4"/><path d="M194.22,208.4s-4.22,31.09,6.45,39.75c1.27,1,2.56,2,3.74,3.14l31.91,30.2s-11.77,13.47-15.95,22c0,0-11.57-16.52-36.25-32.84l-6.06,49.9a4.8,4.8,0,0,1-3.93,4.13c-4.91.87-15.12,1.64-31.89-1.75,0,0-13.3-1.39-12.83-12.53,0,0-3.19-24.57,16.91-78.36,0,0,13.77-34.54,19.82-42.75,0,0,7.58-15.95,21.9-13.75a3.92,3.92,0,0,1,3,2.21c1.6,3.45,4.37,12.39,3.23,31.58" fill="#0071f2"/><path d="M165.13,225.3s.15,27.6,10.64,37.2l8.35,8.17-6.06,49.9s-.61,3.68-3.93,4.13c0,0-20.72,2.84-39.34-4.34,0,0-1.36-16.47,19.14-25.21,0,0,21.27-6.26,15-27.71C168.93,267.44,158.3,235.74,165.13,225.3Z" opacity="0.2"/><path d="M113.17,543.13c-3.47,8.35-1.13,21.93-.28,26.16a.87.87,0,0,1-1.09,1C100.4,567.34,101,556.36,101.52,553a9.32,9.32,0,0,1,.49-1.77,14.66,14.66,0,0,0,.72-4.8,10.11,10.11,0,0,0-1.76-5.32,6.8,6.8,0,0,1-.94-4.76l2.86-5.4,5.22-9.88c5.09,4.52,12.9,5.55,12.9,5.55Z" fill="#f9b499"/><path d="M115.19,573.58H110a10.13,10.13,0,0,1-5.7-1.74C91.44,563.06,96.53,550,96.53,550c1.67-7.66-2-5.67-2-5.67L84.22,556.11,83.39,555l12.15-17c4.16-7.32,7.35-7.06,7.35-7.06l-2.45,4.63a4.12,4.12,0,0,0-.5,2.12,6.83,6.83,0,0,0,1,3.41,10.11,10.11,0,0,1,1.76,5.32,14.66,14.66,0,0,1-.72,4.8,9.32,9.32,0,0,0-.49,1.77c-.48,3.4-1.12,14.38,10.28,17.33a.87.87,0,0,0,1.09-1l2.83,3.08A.72.72,0,0,1,115.19,573.58Z" fill="#0071f2"/><polygon points="151.82 314.75 166.05 573.58 310.02 573.58 323.21 314.75 151.82 314.75" fill="#bcbec0"/><polygon points="151.82 314.75 219.79 314.75 222.6 573.58 166.05 573.58 151.82 314.75" opacity="0.2"/><polygon points="236.32 339.38 237.51 556.9 296.15 556.9 304.47 339.38 236.32 339.38" opacity="0.2"/><rect x="51.88" y="573.58" width="281.05" height="45.4" fill="#d1d3d4"/><rect x="51.88" y="573.58" width="147.11" height="45.4" opacity="0.2"/><path d="M307.76,236.5a43.85,43.85,0,0,0,6.58-3.44,18.87,18.87,0,0,1,11-.67,32.23,32.23,0,0,0,7.25,1.07,35.55,35.55,0,0,0,6.07-.1,1.18,1.18,0,0,1,1.37,1.15c0,1.89-1.59,4.93-12.2,4.49a31.51,31.51,0,0,0,16.81,4.72,7.65,7.65,0,0,0,2.72-.49,13.48,13.48,0,0,1,5.79-1A1.62,1.62,0,0,1,354,245c-3.73,3.29-14.26,11.8-22.44,10.77l-9.85-3.62a19.4,19.4,0,0,0-7.12-1.17l-4.54.11A100.26,100.26,0,0,1,307.76,236.5Z" fill="#f9b499"/><path d="M314.34,238.37a6.38,6.38,0,0,1,2.57-.16,8.69,8.69,0,0,1,2.49.73,7.45,7.45,0,0,1,2.14,1.5,5.66,5.66,0,0,1,1.41,2.17c-.74-.47-1.36-1-2.05-1.36a19.55,19.55,0,0,0-2.06-1.11C317.43,239.46,316,239,314.34,238.37Z" fill="#f7a48b"/><circle cx="281.87" cy="287.22" r="6.3" fill="none" stroke="#ed1c24" stroke-miterlimit="10" stroke-width="0.25"/><path d="M224.87,296.11s9.85,4.71,18.82,3.65V284.25s-7.19,1.21-9.71,0Z" fill="#f9b499"/><path d="M228.15,291.84s8.44,2.68,15.54,1.68v6.24s-7.42,1.46-18.82-3.65Z" fill="#f7a48b"/><path d="M581,294.87a42,42,0,0,1-.43,8.89,43.39,43.39,0,0,1-1.84,7.62c-7.4,13.95-7.4,2.85-7.4,2.85-17.09,11.1-13.68,1.71-13.68,1.71-16.51,10.82-25,0-25,0-4.2,3.42-10.33,0-10.33,0,10.25-4,8-17.94,8-17.94l-2.45-26.89-1.1-12.23a7,7,0,0,1,1.5-5c7.93-9.8,23.37-5.4,23.37-5.4,19.3,4.12,26.23,16.13,28.44,21.65A13.13,13.13,0,0,1,581,275Z" fill="#2f2e41"/><path d="M580.52,303.76a43.39,43.39,0,0,1-1.84,7.62c-7.4,13.95-7.4,2.85-7.4,2.85-17.09,11.1-13.68,1.71-13.68,1.71-16.51,10.82-25,0-25,0-4.2,3.42-10.33,0-10.33,0,10.25-4,8-17.94,8-17.94l-2.45-26.89.12,0a12.66,12.66,0,0,1,16.5,12.08v10.59s0,23.46,36,10Z" opacity="0.2"/><path d="M527.31,287.22s.78,16-4.25,19.86c0,0,3,2.54,5.91,2.36,0,0,2.35-4.86,1.2-13.25l-.76-8.36A2.64,2.64,0,0,1,527.31,287.22Z" fill="#f7a48b"/><path d="M505.76,389.25s-5.83,2.53-6.41-6.61v-35.4a20,20,0,0,1,6.69-15c4.88-4.3,13.09-8.4,26.59-8.31h19s30.93-1.75,32.68,21.39l2.53,24.32Z" fill="#0071f2"/><path d="M474.71,477.39H577.22a9.64,9.64,0,0,1,9.64,9.64v4.88a0,0,0,0,1,0,0H465.06a0,0,0,0,1,0,0V487A9.64,9.64,0,0,1,474.71,477.39Z" fill="#d1d3d4"/><path d="M558.36,477.39H471.11c-2.48,20.53-16.56,85.3-16.56,85.3-2.44,19.46-12.17,15.82-12.17,15.82L425.86,576l-.69-.11a1.28,1.28,0,0,1-1.05-1.62c6.3-22.84,12.76-77.39,14.78-95.34a61.18,61.18,0,0,0,.32-9.76c-1.3-27.71,20.6-27.71,20.6-27.71L505,430.28h72.55C581.71,473.86,558.36,477.39,558.36,477.39Z" fill="#2f2e41"/><path d="M558.36,477.39H471.11c-2.48,20.53-16.56,85.3-16.56,85.3-2.44,19.46-12.17,15.82-12.17,15.82L425.86,576c5.51-9,22.29-39.83,28.69-88.32,0,0-2.84-25.95,25.54-20.67,0,0,99.45,16.17,78.38-36.72h19.06C581.71,473.86,558.36,477.39,558.36,477.39Z" opacity="0.2"/><path d="M502,388.38v9.38a8.75,8.75,0,0,1-3.61,7.08l-33.18,24.09a8.15,8.15,0,0,1-4.16,1.53l-13.4,1a7.68,7.68,0,0,0-4.66,2l-4.61,4.32a4.08,4.08,0,0,0,.21,6.13l6.2,5.08a6.36,6.36,0,0,0,7.9.11l5.67-4.39s10.9-3.43,18.38-9.35L505,423.56l.78-34.31Z" fill="#f9b499"/><polygon points="491.26 429.3 504.98 417.11 504.98 423.56 491.26 429.3" fill="#f7a48b"/><ellipse cx="674.73" cy="290.75" rx="14.28" ry="24.13" transform="translate(-46.02 148.2) rotate(-12.12)" fill="#f9b499"/><path d="M713,255.32a7.82,7.82,0,0,1-1,3.77,8.11,8.11,0,0,1-1.52,2,7.77,7.77,0,0,1-5.4,2.15,7.9,7.9,0,0,1-7.9-7.89,6.84,6.84,0,0,1,.26-1.94,7.39,7.39,0,0,1,1.46-2.94,7.81,7.81,0,0,1,6.18-3A7.89,7.89,0,0,1,713,255.32Z" fill="#2f2e41"/><path d="M712.05,259.09a8.11,8.11,0,0,1-1.52,2l-.87-.36c-4.19-3.44-12.17-7.32-12.17-7.32a7.39,7.39,0,0,1,1.46-2.94C703.05,252.29,708.69,256.46,712.05,259.09Z" fill="#0071f2"/><polygon points="646 414.44 654.23 433.06 659.15 429.75 650.38 412.36 646 414.44" fill="#0071f2"/><path d="M653.4,576.53a5.53,5.53,0,0,1-1.6,3.88l-19.86,20.28c-10,8.74-15.23,3-15.23,3,6.67-4.17,14.89-17.72,17.44-22.1a9.17,9.17,0,0,0,1.23-3.77c1.19-13.87-7.54-67.28-7.54-67.28l29.48,15.94C653.57,535.86,653.37,567.75,653.4,576.53Z" fill="#f9b499"/><path d="M652.65,599.67c-2.75,2.72-2.75,16-2.75,16h-3.73V600.94c-1.5-5.49-10.74,8.61-10.74,8.61-9.49,12.85-27.45,5.86-27.45,5.86-6.74-7,8.73-11.72,8.73-11.72s5.25,5.74,15.23-3l19.86-20.28a5.53,5.53,0,0,0,1.6-3.88C662.36,588.3,652.65,599.67,652.65,599.67Z" fill="#0071f2"/><polygon points="652.57 397.36 656.4 405.65 669.55 396.38 652.57 397.36" fill="#0071f2"/><polygon points="652.57 397.36 656.4 405.65 669.55 396.38 652.57 397.36" fill="#fff" opacity="0.3"/><polygon points="649.46 396.38 651.54 395.68 656.4 405.65 654.65 406.88 649.46 396.38" fill="#0071f2"/><path d="M654.64,406.88c-3.25,2.3-13.52,9.3-13.52,9.3-10.46,7.71-22.82,4.95-27,3.69a2.06,2.06,0,0,1,.61-4h7c3.35-1,6.16-3.72,8-6.11a28.49,28.49,0,0,0,2.73-4.07c-6.33,3.87-9.09,2.24-10.17,1a.62.62,0,0,1,.44-1c3.61-.45,9.55-4.35,9.55-4.35,4.88-3.82,9.42-3.14,9.42-3.14h8.54l3.7,7.51Z" fill="#f9b499"/><path d="M654.64,406.88c-3.25,2.3-13.52,9.3-13.52,9.3-10.46,7.71-22.82,4.95-27,3.69a2.06,2.06,0,0,1,.61-4h7c3.35-1,6.16-3.72,8-6.11.56,0,17.74-.9,24.21-4.09Z" fill="#f7a48b"/><path d="M329.46,172.17l25.1-31.64A38.21,38.21,0,0,1,369,171a42.44,42.44,0,0,1-10.62,27.49c-8.08,9.14-23,18.6-47.18,8.72,0,0-20.22-8.26-21.73-31.51A43.26,43.26,0,0,1,301,143.67a38.84,38.84,0,0,1,16.2-10.79Z" fill="#0071f2"/><path d="M329.46,172.17,292,158.3s6.53-19.1,25.17-25.42Z" fill="#fff" opacity="0.4"/><path d="M329.46,172.17l-35.78,18.68s-8.56-12.78-1.7-32.55Z" fill="#2f2e41"/><path d="M311.16,207.24l18.3-35.07-35.78,18.68S299.51,201.73,311.16,207.24Z" opacity="0.2"/><line x1="435.17" y1="93.1" x2="454.18" y2="115.95" fill="none" stroke="#d1d3d4" stroke-miterlimit="10" stroke-width="3"/><line x1="761.43" y1="126.43" x2="781.27" y2="93.1" fill="none" stroke="#d1d3d4" stroke-miterlimit="10" stroke-width="3"/><rect x="148.47" y="63.91" width="656.8" height="29.19" fill="none" stroke="#d1d3d4" stroke-miterlimit="10" stroke-width="3"/><line x1="148.47" y1="78.51" x2="805.27" y2="78.51" fill="none" stroke="#d1d3d4" stroke-miterlimit="10" stroke-width="3"/><path d="M166.7,63.91s.47,40.65,0,40.65" fill="none" stroke="#d1d3d4" stroke-miterlimit="10" stroke-width="3"/><path d="M366.35,63.91s.47,40.65,0,40.65" fill="none" stroke="#d1d3d4" stroke-miterlimit="10" stroke-width="3"/><path d="M476.77,63.91s.46,29.19,0,29.19" fill="none" stroke="#d1d3d4" stroke-miterlimit="10" stroke-width="3"/><path d="M237.27,159.31C228.57,175.83,216,171.7,216,171.7l-2.23,6.7c2,.67,6,4.9,6,4.9,8.91,1.56,18.7,8.91,18.7,8.91-11.83-11-3.94-20.3.07-23.85a27.12,27.12,0,0,0,5-5.72c13.32-21-4.88-42.12-4.88-42.12C225.58,102.93,216,111,216,111c-11.58-6.24-16.92,4.23-16.92,4.23C193.74,125,182.61,131,182.61,131c-14.25,6.68-9.79,20-9.79,20,2.67,13.36-6.68,16-6.68,16-12,3.83-11.23,15.6-10.54,19.71a29,29,0,0,1,.43,4.74,26,26,0,0,1-.6,6.07,9.6,9.6,0,0,1-1.59,3.41c-20.57,28.46-7.52,31.08-7.52,31.08,11.8-29.84,19.82-42.75,19.82-42.75,7-13.05,16.17-14.27,20.82-13.9a3.22,3.22,0,0,1,2.92,3.75,19.93,19.93,0,0,1-3.93,7.93c26.05-1.79,13.58-36.92,13.58-36.92-.88-3.44,2.8-7.54,6.34-10.58a30.18,30.18,0,0,1,9.84-5.42c11.67-4.06,13.79-14.2,13.79-14.2s9.37,6.18,10.81,21.92c0,.49.06,1,.06,1.46C240.38,146,240.35,153.45,237.27,159.31Z" fill="#2f2e41"/><rect x="142.24" y="305.73" width="191.72" height="11.45" rx="4.31" fill="#d1d3d4"/><path d="M247.58,259.17h62.87a3.89,3.89,0,0,1,3.89,3.89v42.67a0,0,0,0,1,0,0H243.69a0,0,0,0,1,0,0V263.06A3.89,3.89,0,0,1,247.58,259.17Z" fill="#2f2e41"/><path d="M247.35,305.73l35.13-46.56h26.69a5,5,0,0,1,4.09,2l-27.58,44.54Z" fill="#fff" opacity="0.2"/><ellipse cx="530.34" cy="281.39" rx="6.59" ry="5.49" transform="translate(71.85 668.99) rotate(-68.16)" fill="#f9b499"/><rect x="516.27" y="426.2" width="7.39" height="55.43" fill="#d1d3d4"/><rect x="573.83" y="426.2" width="7.39" height="55.43" fill="#d1d3d4"/><path d="M589,365.72v64.56H505V365.72a22.37,22.37,0,0,1,22.37-22.37h39.29A22.07,22.07,0,0,1,578,346.48,22.3,22.3,0,0,1,589,365.72Z" fill="#d1d3d4"/><path d="M589,365.72v64.56H505V406.75s50.58-16.73,46.68-63.4h15A22.35,22.35,0,0,1,589,365.72Z" opacity="0.2"/><path d="M589,365.72v64.56H550.11s30.17-22,27.81-61.25l.11-22.55A22.3,22.3,0,0,1,589,365.72Z" opacity="0.2"/><path d="M649.46,410.54,661.8,435l34.87-17.54A48.54,48.54,0,0,0,707.28,404s14.72-26.42,21-45.26c0,0,7.11-21.06-5.87-25.25,0,0-13-7.14-20.59,7.06L681.73,387.8Z" fill="#0071f2"/><path d="M649.46,410.54,661.8,435l34.87-17.54A48.54,48.54,0,0,0,707.28,404s14.72-26.42,21-45.26c0,0,7.11-21.06-5.87-25.25,0,0-13-7.14-20.59,7.06L681.73,387.8Z" fill="#fff" opacity="0.2"/><path d="M743,358.08a10.92,10.92,0,0,0,0,9.68c-10.82.57-8-16.22-8-16.22a15.77,15.77,0,0,0-.34-2.21,11.77,11.77,0,0,0-9.54-9.19c-13.47-.56-13.28-9.3-13.28-9.3-2.28-6.45-5.12-5.69-5.12-5.69-7.22-.57-9.5-2.47-9.5-2.47.29,7-.39,12.2-1.61,16.12-4.29,13.66-15.33,11.32-15.33,11.32,10-7.07,1.14-18.94,1.14-18.94-5.47-8.21.9-19.94.9-19.94a10.9,10.9,0,0,0,1.32-5.94,8.26,8.26,0,0,0-1.82-4.51c-2.15-2.86-.67-8.18-.67-8.18,4.11-4.84,0-9.32,0-9.32l-5.42,4.65c1,4.35,0,5.6,0,5.6a9.86,9.86,0,0,0,2.27,9.1c-7.86-1-5.79-14.7-5.79-14.7,0-6.62-8.69-9.72-8.69-9.72-8.9-6.62-1.45-14.29-1.45-14.29,5.09-9.29,14.85-12.34,14.85-12.34,11.1-7.41,32.74,9.11,32.74,9.11,15.37,6,9.11,16.8,9.11,16.8,8.83,6.55,4.27,16,4.27,16-2.57,8.06,7.12,13.28,7.12,13.28,9.69,4.85,4.84,17.37,4.84,17.37-3.13,10.26,4.55,17.09,4.55,17.09C748.1,350.68,743,358.08,743,358.08Z" fill="#2f2e41"/><path d="M734.66,349.33a11.77,11.77,0,0,0-9.54-9.19c-13.47-.56-13.28-9.3-13.28-9.3-2.28-6.45-5.12-5.69-5.12-5.69-7.22-.57-9.5-2.47-9.5-2.47.29,7-.39,12.2-1.61,16.12,0,0-3.69-14.18-2.47-26.27V296.58s4.56,17.94,14.24,19.64c0,0,7.41-.85,10,10,0,0,1.13,5.7,8.25,9.4C725.6,335.59,734.28,338.13,734.66,349.33Z" opacity="0.2"/><ellipse cx="678.87" cy="287.95" rx="4.14" ry="5.59" fill="#f9b499"/><path d="M632.2,433.84c3.2-.5,2.53,1.92,2.53,1.92-9.12,3.76-8.75-.07-8.75-.07-3,.51-4.65-2.12-5.47-4.32a4.46,4.46,0,0,1,.81-4.53l6.16-7.13a6.34,6.34,0,0,1,5.13-2.18l15.08.75,2,4.43,2.07,4.68c-3.36,3.62-17.15,3.25-17.15,3.25C629,432,632.2,433.84,632.2,433.84Z" fill="#f9b499"/><path d="M632.2,433.84c3.2-.5,2.53,1.92,2.53,1.92-9.12,3.76-8.75-.07-8.75-.07-3,.51-4.65-2.12-5.47-4.32a4.46,4.46,0,0,1,.81-4.53s.64,2.79,3.15,2.3c0,0,2.85,2.3,8.91-2.3,0,0,14,.2,16.27-4.13l2.07,4.68c-3.36,3.62-17.15,3.25-17.15,3.25C629,432,632.2,433.84,632.2,433.84Z" fill="#f7a48b"/><path d="M454.18,116s-9.1,52.23,23.28,66.84a22.11,22.11,0,0,0,5.34,1.62c6.52,1.14,26.76,4,77.12,6.46,0,0,96.51,3.71,152.13-2.66,0,0,57.75,1.06,57.75-51.54L767.67,116S629.62,147.29,454.18,116Z" fill="#0071f2"/><path d="M549.73,157.61a9.26,9.26,0,0,1-5.28-1.44,4.24,4.24,0,0,1-2.15-3.63q0-2.78,3.61-5.55a1.89,1.89,0,0,1,.94-.48c.21,0,.32.07.32.21q0,.53-.84.84c-2,1.57-2.93,3.16-2.93,4.77a3.5,3.5,0,0,0,1.57,2.9,6.32,6.32,0,0,0,3.92,1.18c3.43,0,6.65-1.64,9.69-4.92a8.49,8.49,0,0,0,2.36-5.92,5.5,5.5,0,0,0-2.52-5,9.66,9.66,0,0,0-5.65-1.47,23.14,23.14,0,0,0-10.32,2.57,33.45,33.45,0,0,0-11.54,9.6q-5.16,6.52-5.16,12.54A8.86,8.86,0,0,0,529,171.2a12.49,12.49,0,0,0,8.06,2.59,23.7,23.7,0,0,0,10.79-2.67,24.32,24.32,0,0,0,7-5.34c.56-.63,1-.94,1.31-.94s.31.18.31.55a1.66,1.66,0,0,1-.57,1.13,30.37,30.37,0,0,1-8,5.65,27.52,27.52,0,0,1-13,3.4q-6.52,0-9.71-4.29a10.81,10.81,0,0,1-2.15-6.75,18,18,0,0,1,.42-3.72q1.41-6.7,7.43-13a30.63,30.63,0,0,1,10.32-7.09,28.81,28.81,0,0,1,11.31-2.54,15.81,15.81,0,0,1,4.92.68c3.8,1.18,5.71,3.58,5.71,7.17a8.85,8.85,0,0,1-1.94,5.71Q556.39,157.61,549.73,157.61Z" fill="#fff"/><path d="M573.08,161.07q0,1.83-3.5,6.13-4.14,5.07-7.07,5.07h-.84a2.4,2.4,0,0,1-2.15-1.41,4,4,0,0,1-.62-2.2q0-3.14,4.58-8.82t7.4-5.68c1.79,0,2.68.94,2.68,2.83a8.67,8.67,0,0,1-.27,1.88c0,.1.37.16,1,.16a7.2,7.2,0,0,0,2.88-1c0,.6-1.42,1.45-4.14,2.57A1.74,1.74,0,0,1,573.08,161.07Zm-3.4-2.72c-1.19,0-2.87,1.39-5,4.19s-3.27,4.85-3.27,6.17.42,2,1.25,2c1.5,0,3.41-1.36,5.71-4.08s3.46-4.68,3.46-5.86A7.71,7.71,0,0,1,569.68,158.35Z" fill="#fff"/><path d="M582.56,155.62c.94,0,1.41.37,1.41,1.1a1.45,1.45,0,0,1-.15.63c-3.14,4.37-5,7.66-5.66,9.9q12.2-12.19,14.82-12.2a2,2,0,0,1,.47-.05c1,0,1.47.43,1.47,1.31a1.43,1.43,0,0,1-.11.52c-.07.17-.77,1.12-2.09,2.83a47.08,47.08,0,0,0-3.9,5.23,8.35,8.35,0,0,0-1.6,4.19c0,1.12.24,1.68.73,1.68q2.31,0,8-6.34a4.22,4.22,0,0,0,.37-.47c.52-.63.84-.94.94-.94s.16.17.16.52a2.36,2.36,0,0,1-.73,1.36q-6.5,7.38-9.22,7.38c-1.71,0-2.56-.94-2.56-2.82A13.45,13.45,0,0,1,587,163l3.35-5.44a41.55,41.55,0,0,0-6.33,5.73q-2.78,3.12-5.06,6c-1.52,2-2.4,2.93-2.64,2.93a1.43,1.43,0,0,1-1.23-.65,2.82,2.82,0,0,1-.45-1.63,7.28,7.28,0,0,1,.68-2.59c.46-1.08,1-2.39,1.73-3.92l-3.14,3.29c-.77.77-1.25,1.16-1.44,1.16s-.29-.12-.29-.34a1.15,1.15,0,0,1,.42-.76,43.19,43.19,0,0,0,3.35-3.72q1.37-1.78,5.6-6.81A1.31,1.31,0,0,1,582.56,155.62Z" fill="#fff"/><path d="M616.59,146.57c0,1.08-.31,1.62-.94,1.62-.17,0-.35-.14-.52-.42a1.66,1.66,0,0,0-1.57-.84q-2.41,0-4.51,3.46-.42.68-2.61,4.92h.62q5.72,0,7.6-.16c.13,0,.21.11.21.21,0,.28-1.24.67-3.72,1.15s-4.26.72-5.76,1c-1.08,2.23-2.39,4.89-3.93,8q-4.71,8.79-6.23,10.94-4.56,6.5-8.9,6.49a3.43,3.43,0,0,1-2.64-1.28,4.46,4.46,0,0,1-1.18-2.85c.1-.42.26-.63.47-.63s.17.12.21.36a4.25,4.25,0,0,0,1,2.1,2.14,2.14,0,0,0,1.51.73q4.46,0,8.12-5.5a84.15,84.15,0,0,0,5.71-11.3l2.82-6.81c-3.49,0-5.23-.45-5.23-1.26a1.07,1.07,0,0,1,.5-.89,1.53,1.53,0,0,1,.86-.36l4.92.1q5.13-11.42,9.43-11.41a4.87,4.87,0,0,1,3.29,1.57A1.48,1.48,0,0,1,616.59,146.57Z" fill="#fff"/><path d="M610.57,172.85a3.11,3.11,0,0,1-1-.16q-3.36-.93-3.36-3.77,0-3.66,4.61-8.48t8.27-4.82a2.9,2.9,0,0,1,2,.66,2.06,2.06,0,0,1,.76,1.6q0,2.93-4.43,5.6t-7.2,2.67a2.29,2.29,0,0,1-.73-.11,6.13,6.13,0,0,0-.79,3c0,1.81.87,2.72,2.6,2.72s4-1.17,6.72-3.51a33.38,33.38,0,0,0,5.45-5.44q.47-.63.81-.63c.23,0,.34.1.34.31a1.75,1.75,0,0,1-.42.89,32.08,32.08,0,0,1-6.8,6.6Q613.34,172.85,610.57,172.85Zm9.9-15.08c0-.42-.45-.63-1.34-.63s-2.15.68-3.79,2a23.41,23.41,0,0,0-5.13,5.71,2.11,2.11,0,0,0,.68.11q2,0,5.31-2.12a9.34,9.34,0,0,0,4.16-4.64A1.27,1.27,0,0,0,620.47,157.77Z" fill="#fff"/><path d="M632,172.43q-3.93,0-3.93-4.34a12.17,12.17,0,0,1,1.15-4.82,21.43,21.43,0,0,1,2.52-4.4,3.25,3.25,0,0,1-.68,0c-.84,0-1.54-.59-2.1-1.78l-3.87,5c-2.17,2.69-3.42,4-3.77,4-.18,0-.26-.07-.26-.21a2.8,2.8,0,0,1,.89-1.52,49.59,49.59,0,0,0,6.44-8.95q1.2-4.56,3-4.56c.81,0,1.21.35,1.21,1a4.77,4.77,0,0,1-1.31,2.67l-1.26,1.68c0,.73.54,1.1,1.62,1.1a4.26,4.26,0,0,0,2.1-.68l1.36-.84a1.4,1.4,0,0,1,.52-.05,1.26,1.26,0,0,1,.89.52.93.93,0,0,1,.32.94l-3.62,4.56q-3.35,4.29-3.35,6.78c0,1.66.77,2.48,2.31,2.48s3.57-.85,5.91-2.56a25.37,25.37,0,0,0,3.83-3.4,11.31,11.31,0,0,1,1.78-1.89q.36,0,.36.39a1.44,1.44,0,0,1-.47.92L642,166.52a32.27,32.27,0,0,1-3.15,2.82Q634.72,172.43,632,172.43Z" fill="#fff"/><path d="M644.66,172.85a3.13,3.13,0,0,1-1-.16q-3.35-.93-3.35-3.77,0-3.66,4.61-8.48t8.27-4.82a2.87,2.87,0,0,1,2,.66,2,2,0,0,1,.76,1.6q0,2.93-4.42,5.6t-7.2,2.67a2.35,2.35,0,0,1-.74-.11,6.12,6.12,0,0,0-.78,3c0,1.81.86,2.72,2.59,2.72s4-1.17,6.73-3.51a33.3,33.3,0,0,0,5.44-5.44c.32-.42.59-.63.82-.63s.34.1.34.31a1.75,1.75,0,0,1-.42.89,32.37,32.37,0,0,1-6.81,6.6Q647.43,172.85,644.66,172.85Zm9.89-15.08c0-.42-.44-.63-1.33-.63s-2.16.68-3.8,2a23.41,23.41,0,0,0-5.13,5.71,2.15,2.15,0,0,0,.68.11q2,0,5.31-2.12a9.37,9.37,0,0,0,4.17-4.64A1.24,1.24,0,0,0,654.55,157.77Z" fill="#fff"/><path d="M663.87,155.62c.94,0,1.42.37,1.42,1.1a1.47,1.47,0,0,1-.16.63c-3.14,4.37-5,7.66-5.66,9.9q12.21-12.19,14.82-12.2a2.09,2.09,0,0,1,.47-.05c1,0,1.47.43,1.47,1.31a1.43,1.43,0,0,1-.11.52,34.33,34.33,0,0,1-2.09,2.83,47.08,47.08,0,0,0-3.9,5.23,8.35,8.35,0,0,0-1.6,4.19c0,1.12.24,1.68.73,1.68q2.31,0,8-6.34a4.22,4.22,0,0,0,.37-.47c.52-.63.84-.94.94-.94s.16.17.16.52a2.36,2.36,0,0,1-.73,1.36q-6.5,7.38-9.22,7.38c-1.71,0-2.56-.94-2.56-2.82a13.56,13.56,0,0,1,2.09-6.5l3.35-5.44a41.55,41.55,0,0,0-6.33,5.73q-2.77,3.12-5.06,6c-1.51,2-2.39,2.93-2.64,2.93a1.43,1.43,0,0,1-1.23-.65,2.82,2.82,0,0,1-.45-1.63,7.13,7.13,0,0,1,.69-2.59c.45-1.08,1-2.39,1.72-3.92l-3.14,3.29c-.77.77-1.25,1.16-1.44,1.16s-.29-.12-.29-.34a1.15,1.15,0,0,1,.42-.76,43.19,43.19,0,0,0,3.35-3.72q1.37-1.78,5.61-6.81A1.28,1.28,0,0,1,663.87,155.62Z" fill="#fff"/><path d="M680.52,172.85a3.21,3.21,0,0,1-1-.16q-3.35-.93-3.35-3.77,0-3.66,4.61-8.48t8.27-4.82a2.91,2.91,0,0,1,2,.66,2.25,2.25,0,0,1,.76,1.78,4.93,4.93,0,0,1-.68,2.36,2.21,2.21,0,0,1-2,1.23c-.91,0-1.36-.28-1.36-.84a4.06,4.06,0,0,1,.71-1.76,10.19,10.19,0,0,0,.7-1.25c0-.06,0-.08-.15-.08a9.21,9.21,0,0,0-4,2.09,17.72,17.72,0,0,0-3.48,3.25l-2,3a6.11,6.11,0,0,0-.76,2,9.42,9.42,0,0,0-.24,1.73,2.08,2.08,0,0,0,.66,1.31,2.35,2.35,0,0,0,1.86.73c1.74,0,3.91-1,6.49-3.06a33.6,33.6,0,0,0,6-5.84.78.78,0,0,1,.63-.31q.36,0,.36.21a.87.87,0,0,1-.26.52A31.41,31.41,0,0,1,687.2,170Q683.2,172.85,680.52,172.85Z" fill="#fff"/><path d="M694,172.85a3.17,3.17,0,0,1-1-.16q-3.35-.93-3.35-3.77,0-3.66,4.61-8.48t8.27-4.82a2.87,2.87,0,0,1,2,.66,2,2,0,0,1,.76,1.6q0,2.93-4.42,5.6t-7.2,2.67a2.29,2.29,0,0,1-.73-.11,6,6,0,0,0-.79,3c0,1.81.87,2.72,2.59,2.72s4-1.17,6.73-3.51a33.38,33.38,0,0,0,5.45-5.44q.46-.63.81-.63c.23,0,.34.1.34.31a1.75,1.75,0,0,1-.42.89,31.9,31.9,0,0,1-6.81,6.6Q696.81,172.85,694,172.85Zm9.9-15.08c0-.42-.45-.63-1.34-.63s-2.15.68-3.8,2a23.82,23.82,0,0,0-5.13,5.71,2.15,2.15,0,0,0,.68.11q2,0,5.32-2.12a9.39,9.39,0,0,0,4.16-4.64A1.27,1.27,0,0,0,703.93,157.77Z" fill="#fff"/><g clip-path="url(#bba1797d-02d6-49ba-8647-7b2a2f5c5d3f)"><path d="M-680.37,146.31V478.2H1.68V146.31ZM-29.27,454.8H-659.33V169.54H-29.27Z" fill="#fff"/></g><g id="b656ba1f-add9-448e-94dd-bb513b35e972" data-name="freesvgillustration--Plant--inject-2"><path d="M802.11,568.73s-9.41-20.5,1.33-40.71,13.86-25,7-29.13-10,16.18-10,16.18-5.72-14-1-28.58,7.76-38.44,1.26-41-1.24,29.71-6.89,40.71a95.48,95.48,0,0,1-5.53-24c-.77-11.75.45-30.5-4.7-35.32s-8.42-1.42-3.37,24.44a272.14,272.14,0,0,1,5,47s-11.16-34-18.58-35-7.47,10-1.06,19.56,18.7,26.62,20.71,35.44c0,0-12.23-25.59-23.25-17.75s9.59,23.3,18.81,28.87,15.56,40.6,15.56,40.6Z" fill="#0071f2"/><path d="M802.11,568.73s-9.41-20.5,1.33-40.71,13.86-25,7-29.13-10,16.18-10,16.18-5.72-14-1-28.58,7.76-38.44,1.26-41-1.24,29.71-6.89,40.71a95.48,95.48,0,0,1-5.53-24c-.77-11.75.45-30.5-4.7-35.32s-8.42-1.42-3.37,24.44a272.14,272.14,0,0,1,5,47s-11.16-34-18.58-35-7.47,10-1.06,19.56,18.7,26.62,20.71,35.44c0,0-12.23-25.59-23.25-17.75s9.59,23.3,18.81,28.87,15.56,40.6,15.56,40.6Z" opacity="0.2" style="isolation:isolate"/><path d="M794.72,577.15s9.16-20.65-1.82-40.7-14.16-24.77-7.36-29,10.18,16,10.18,16,5.6-14.06.67-28.58-8.22-38.33-1.74-41,1.6,29.7,7.37,40.61a94.05,94.05,0,0,0,5.23-24.07c.64-11.76-.8-30.5,4.29-35.39s8.4-1.6,3.67,24.4a272.12,272.12,0,0,0-4.46,47.06S821.5,472.34,829,471.24s7.59,9.9,1.3,19.55-18.43,26.94-20.36,35.73c0,0,11.93-25.73,23-18.09s-9.31,23.45-18.41,29.16-15.12,40.8-15.12,40.8Z" fill="#0071f2"/><polygon points="836.89 562.43 761.29 562.43 767.41 616.54 830.77 616.54 836.89 562.43" fill="#2f2e41"/></g></svg>